<svg width="191" height="21" viewBox="0 0 191 21" fill="none" xmlns="http://www.w3.org/2000/svg"><g fill="#fff"><path d="M14.461 1.846v10.615c0 3.539-1.538 5-5.23 5C5.538 17.462 4 16 4 12.462V1.385H.462c-.231 0-.462.23-.462.461v10.77c0 5.922 3.77 8 9.23 8 5.462 0 9.232-2.078 9.232-8V1.384h-3.539c-.23 0-.462.153-.462.461Zm51.462 2.616c.308 0 .462-.077.538-.308l1-2.539c.077-.153 0-.23-.153-.23H53c-1.308 0-1.846.384-1.846 1.307v16.462c0 .77.384 1.154 1.384 1.154h13.308c.308 0 .462-.077.539-.308l1-2.538c.076-.154 0-.231-.154-.231H55.077v-3.385c0-1.154.615-1.692 2.385-1.692h5.307c.308 0 .462-.077.539-.308l1-2.461c.077-.154 0-.231-.154-.231h-9v-4.77h10.769v.078Z"/><path fill-rule="evenodd" clip-rule="evenodd" d="M40.77 10.308c1.538-.846 2.153-2.308 2.153-4.154 0-4.154-3.385-4.77-6.923-4.77h-8.077c-1.308 0-1.846.385-1.846 1.308v16.462c0 .77.384 1.154 1.384 1.154h9.924c3.769 0 6.384-1.462 6.384-5.231.077-2.308-.846-4.23-3-4.77ZM30.076 4.385h6.23c2.078 0 2.693.769 2.693 2.384 0 1.616-.615 2.385-2.692 2.385h-6.231v-4.77Zm0 12.846h7c2.23 0 2.846-.77 2.846-2.539 0-1.769-.615-2.615-2.846-2.615h-4.615c-1.77 0-2.385.538-2.385 1.692v3.462ZM88 12.692 92.23 20c.078.077.078.308-.076.308h-3.615c-.308 0-.385-.077-.539-.308l-3.846-6.923h-3.462c-1.769 0-2.384.538-2.384 1.692v5.539h-3.462a.496.496 0 0 1-.461-.462V2.692c0-.923.538-1.307 1.846-1.307h8.077c4.692 0 7.538 1.23 7.538 5.846 0 3.538-1.769 4.923-3.846 5.461Zm-9.77-2.538h6.616c2.462 0 3-.923 3-2.923 0-1.923-.538-2.846-3-2.846h-6.615v5.769Z"/></g><g fill="#57AD56"><path d="m121.692 18.615-.077 1.693h-14V1.385h13.462l.077 1.769h-11.616v6.538h10v1.539h-10v7.384h12.154Z" stroke="#57AD56" stroke-width=".25"/><path fill-rule="evenodd" clip-rule="evenodd" d="M133.308 15.385h11.154l2.153 4.923h2.154l-8.692-18.923h-2.231l-8.769 18.923h2.077l2.154-4.923Zm.692-1.616 4.077-9.154.769-1.923h.077l.769 1.923 4 9.154H134Z"/><path d="m144.462 15.385.114-.05-.033-.075h-.081v.125Zm-11.154 0v-.125h-.082l-.033.075.115.05Zm13.307 4.923-.114.05.033.075h.081v-.125Zm2.154 0v.125h.195l-.081-.177-.114.052Zm-8.692-18.923.113-.053-.033-.072h-.08v.125Zm-2.231 0V1.26h-.08l-.033.072.113.053Zm-8.769 18.923-.114-.053-.082.178h.196v-.125Zm2.077 0v.125h.082l.032-.075-.114-.05Zm6.923-15.693.114.051.002-.004-.116-.047ZM134 13.77l-.114-.05-.079.175H134v-.125Zm4.846-11.077v-.125h-.084l-.032.079.116.046Zm.077 0 .116-.046-.031-.079h-.085v.125Zm.769 1.923-.116.047.002.003.114-.05Zm4 9.154v.125h.191l-.076-.175-.115.05Zm.77 1.49h-11.154v.25h11.154v-.25Zm2.268 4.999-2.154-4.923-.229.1 2.154 4.923.229-.1Zm2.039-.075h-2.154v.25h2.154v-.25Zm-8.806-18.746 8.693 18.923.227-.104-8.693-18.924-.227.105Zm-2.117.073h2.231v-.25h-2.231v.25Zm-8.656 18.85 8.77-18.923-.227-.105-8.77 18.923.227.105Zm1.964-.177h-2.077v.25h2.077v-.25Zm2.039-4.848-2.154 4.923.229.1 2.154-4.923-.229-.1Zm4.77-10.77-4.077 9.153.228.102 4.077-9.154-.228-.101Zm.767-1.92-.769 1.924.232.093.769-1.923-.232-.093Zm.193-.078h-.077v.25h.077v-.25Zm.885 2.002-.769-1.923-.232.093.769 1.923.232-.093Zm3.999 9.15-4-9.154-.229.1 4 9.154.229-.1Zm-9.807.175h9.692v-.25H134v.25Z"/><path d="M162.615 3.154v17.154h-1.923V3.154h-7.077l.077-1.77h16.077v1.77h-7.154Zm20.847 17.538c-2.616 0-4.693-.615-6.385-1.615l.308-1.692A12.2 12.2 0 0 0 183.538 19c3.539 0 5.385-1.615 5.385-3.923 0-5-11.538-2.385-11.538-8.846 0-2.77 2.077-5.231 6.923-5.231 2.23 0 4.23.385 5.846 1.154l-.308 1.615c-1.769-.692-3.461-1.077-5.461-1.077-3.77 0-5.154 1.693-5.154 3.385 0 4.77 11.538 2.077 11.538 8.846-.077 3.385-2.538 5.77-7.307 5.77Z" stroke="#57AD56" stroke-width=".25"/></g></svg>